{"title":"My Bromance (2014) DVD RIP","uid":11483961,"size":1461443879,"categoryP":"video","categoryS":"movies","magnet":"?xt=urn:btih:bcd26249a45b7eadcb0bf7994bd9f663bcf58bf1&amp;dn=My+Bromance+%282014%29+DVD+RIP&amp;tr=udp%3A%2F%2Ftracker.openbittorrent.com%3A80&amp;tr=udp%3A%2F%2Fopen.demonii.com%3A1337&amp;tr=udp%3A%2F%2Ftracker.coppersurfer.tk%3A6969&amp;tr=udp%3A%2F%2Fexodus.desync.com%3A6969","seeders":4,"leechers":2,"uploader":"jmanwf","files":-1,"time":1416203493,"description":"Format : MPEG-4\nFormat profile : Base Media\nCodec ID : isom\nFile size : 1.35 GiB\nDuration : 1h 58mn\nOverall bit rate mode : Variable\nOverall bit rate : 1 626 Kbps\nMovie name : My Bromance (2014)\nContentType : Short Film\nEncoded date : UTC 2014-11-08 05:12:54\nTagged date : UTC 2014-11-08 05:16:45\nWriting application : MkvToMp4 [www.mkvtomp4.ru] version: 0.224 (x32)\n\nVideo\nID : 1\nFormat : AVC\nFormat/Info : Advanced Video Codec\nFormat profile : &lt;a class=&quot;__cf_email__&quot; href=&quot;/cdn-cgi/l/email-protection&quot; data-cfemail=&quot;c588a4acab8589f1ebf5&quot;&gt;[email&amp;#160;protected]&lt;/a&gt;&lt;script cf-hash='f9e31' type=&quot;text/javascript&quot;&gt;\n/* &lt;![CDATA[ */!function(){try{var t=&quot;currentScript&quot;in document?document.currentScript:function(){for(var t=document.getElementsByTagName(&quot;script&quot;),e=t.length;e--;)if(t[e].getAttribute(&quot;cf-hash&quot;))return t[e]}();if(t&amp;&amp;t.previousSibling){var e,r,n,i,c=t.previousSibling,a=c.getAttribute(&quot;data-cfemail&quot;);if(a){for(e=&quot;&quot;,r=parseInt(a.substr(0,2),16),n=2;a.length-n;n+=2)i=parseInt(a.substr(n,2),16)^r,e+=String.fromCharCode(i);e=document.createTextNode(e),c.parentNode.replaceChild(e,c)}}}catch(u){}}();/* ]]&gt; */&lt;/script&gt;\nFormat settings, CABAC : Yes\nFormat settings, ReFrames : 4 frames\nCodec ID : avc1\nCodec ID/Info : Advanced Video Coding\nDuration : 1h 58mn\nBit rate : 1 484 Kbps\nMaximum bit rate : 13.1 Mbps\nWidth : 720 pixels\nHeight : 436 pixels\nDisplay aspect ratio : 2.35:1\nFrame rate mode : Constant\nFrame rate : 25.000 fps\nColor space : YUV\nChroma subsampling : 4:2:0\nBit depth : 8 bits\nScan type : Progressive\nBits/(Pixel*Frame) : 0.189\nStream size : 1.23 GiB (91%)\nWriting library : x264 core 130 r2273 b3065e6\n\n\n\nLanguage : English\nEncoded date : UTC 2014-11-08 05:12:54\nTagged date : UTC 2014-11-08 05:14:23\nColor primaries : BT.601 PAL\nTransfer characteristics : BT.709\nMatrix coefficients : BT.601\n\nAudio\nID : 2\nFormat : AAC\nFormat/Info : Advanced Audio Codec\nFormat profile : LC\nCodec ID : 40\nDuration : 1h 58mn\nBit rate mode : Variable\nBit rate : 132 Kbps\nMaximum bit rate : 222 Kbps\nChannel(s) : 2 channels\nChannel positions : Front: L R\nSampling rate : 48.0 KHz\nCompression mode : Lossy\nStream size : 113 MiB (8%)\nLanguage : Thai\nEncoded date : UTC 2014-11-08 05:08:16\nTagged date : UTC 2014-11-08 05:14:23\n\n\nStoryline\n\nThis is a Thai film for teens, about the love of two schoolboys, Golf and Bank. Golf is an aggressive boy and Bank is gentle, considerate and sweet-natured.\n\n &lt;a href=&quot;\nhttp://s26.postimg.org/5cwxstx6h/image.jpg&quot; rel=&quot;nofollow&quot; target=&quot;_NEW&quot;&gt;\nhttp://s26.postimg.org/5cwxstx6h/image.jpg&lt;/a&gt;\n\n &lt;a href=&quot;\nhttp://s26.postimg.org/vmi0bmj3t/image.jpg&quot; rel=&quot;nofollow&quot; target=&quot;_NEW&quot;&gt;\nhttp://s26.postimg.org/vmi0bmj3t/image.jpg&lt;/a&gt;\n\n &lt;a href=&quot;\nhttp://www.imdb.com/title/tt3522738/&quot; rel=&quot;nofollow&quot; target=&quot;_NEW&quot;&gt;\nhttp://www.imdb.com/title/tt3522738/&lt;/a&gt;","torrent":{"xt":"urn:btih:bcd26249a45b7eadcb0bf7994bd9f663bcf58bf1","amp;dn":"My+Bromance+%282014%29+DVD+RIP","amp;tr":["udp%3A%2F%2Ftracker.openbittorrent.com%3A80","udp%3A%2F%2Fopen.demonii.com%3A1337","udp%3A%2F%2Ftracker.coppersurfer.tk%3A6969","udp%3A%2F%2Fexodus.desync.com%3A6969"],"infoHash":"bcd26249a45b7eadcb0bf7994bd9f663bcf58bf1","infoHashBuffer":{"type":"Buffer","data":[188,210,98,73,164,91,126,173,203,11,247,153,75,217,246,99,188,245,139,241]},"announce":[],"urlList":[]}}